<svg width="204" height="204" viewBox="0 0 204 204" fill="none" xmlns="http://www.w3.org/2000/svg">
<path d="M187.639 69.9021C193.092 67.8586 199.226 70.6143 200.696 76.2484C206.238 97.4863 204.802 120.051 196.436 140.546C186.737 164.31 168.435 183.543 145.182 194.409C121.928 205.275 95.4333 206.975 70.9821 199.169C46.5309 191.364 25.9211 174.628 13.2642 152.299C0.607328 129.97 -3.16618 103.69 2.6965 78.7016C8.55918 53.7134 23.627 31.854 44.8941 17.4842C66.1612 3.11439 92.0641 -2.7094 117.435 1.17464C139.317 4.52444 159.415 14.8827 174.791 30.5466C178.869 34.702 178.083 41.3805 173.529 45.009C168.975 48.6374 162.385 47.8272 158.195 43.7832C146.212 32.2155 130.877 24.5642 114.244 22.0179C94.1181 18.9368 73.5701 23.5566 56.6994 34.9558C39.8288 46.355 27.8758 63.6955 23.2251 83.518C18.5744 103.34 21.5679 124.188 31.6082 141.901C41.6486 159.614 57.9979 172.89 77.3943 179.082C96.7908 185.274 117.809 183.925 136.255 175.305C154.701 166.686 169.219 151.429 176.914 132.578C183.273 116.999 184.584 99.9117 180.815 83.688C179.497 78.0164 182.187 71.9457 187.639 69.9021Z" fill="url(#paint0_linear_16_349)"/>
<path d="M 39.077 93.8 C 39.077 101.75 44.401 108.097 52.15 108.097 C 53.156 108.097 53.866 107.975 54.28 107.727 L 45.347 120.915 L 57.888 120.915 L 66.998 105.818 C 69.305 101.935 70.784 97.498 70.784 93.492 C 70.784 84.495 64.1 77.778 54.931 77.778 C 45.939 77.778 39.077 84.557 39.077 93.8 Z M 49.488 93.369 C 49.488 90.226 51.914 87.823 54.99 87.823 C 58.066 87.823 60.432 90.288 60.432 93.43 C 60.432 96.573 58.066 98.977 54.99 98.977 C 51.914 98.977 49.488 96.512 49.488 93.369 Z M 110.696 99.778 C 110.696 88.131 104.307 77.778 92.713 77.778 C 81.06 77.778 74.671 88.131 74.671 99.778 C 74.671 111.425 81.06 121.778 92.713 121.778 C 104.307 121.778 110.696 111.425 110.696 99.778 Z M 99.693 99.778 C 99.693 105.51 97.564 111.117 92.713 111.117 C 87.804 111.117 85.674 105.51 85.674 99.778 C 85.674 94.046 87.804 88.439 92.713 88.439 C 97.564 88.439 99.693 94.046 99.693 99.778 Z M 135.108 88.439 C 135.108 82.584 130.553 78.024 124.696 78.024 C 118.84 78.024 114.285 82.584 114.285 88.439 C 114.285 94.294 118.84 98.854 124.696 98.854 C 130.553 98.854 135.108 94.294 135.108 88.439 Z M 128.127 88.439 C 128.127 90.596 126.649 92.075 124.696 92.075 C 122.744 92.075 121.265 90.596 121.265 88.439 C 121.265 86.283 122.744 84.803 124.696 84.803 C 126.649 84.803 128.127 86.283 128.127 88.439 Z M 157.291 78.579 L 148.24 78.579 L 118.071 120.915 L 127.122 120.915 L 157.291 78.579 Z M 140.254 111.056 C 140.254 116.91 144.809 121.47 150.666 121.47 C 156.522 121.47 161.077 116.91 161.077 111.056 C 161.077 105.2 156.522 100.641 150.666 100.641 C 144.809 100.641 140.254 105.2 140.254 111.056 Z M 147.235 111.056 C 147.235 108.899 148.714 107.419 150.666 107.419 C 152.618 107.419 154.097 108.899 154.097 111.056 C 154.097 113.213 152.618 114.691 150.666 114.691 C 148.714 114.691 147.235 113.213 147.235 111.056 Z" fill="black"></path>
<defs>
<linearGradient id="paint0_linear_16_349" x1="-12.4348" y1="91.2145" x2="228.124" y2="92.098" gradientUnits="userSpaceOnUse">
<stop stop-color="#89216b"/>
<stop offset="1" stop-color="#da4453"/>
</linearGradient>
</defs>
</svg>
