<?xml version="1.0" encoding="utf-8"?>
<svg width="155px" height="41" viewBox="0 0 190 41" fill="none" style="" xmlns="http://www.w3.org/2000/svg">
  <defs/>
  <path opacity="1.000000" stroke="none" d="M 115.579 39.19 C 113.758 38.235 112.529 36.681 111.116 34.986 C 108.513 39.223 104.682 40.61 100.358 40.5 C 95.835 40.384 92.517 37.903 90.07 33.563 C 90.07 34.971 90.07 36.38 90.07 37.789 C 90.068 39.815 90.013 39.883 88.126 39.905 C 86.983 39.916 85.837 39.851 84.696 39.915 C 83.535 39.98 82.697 39.7 82.762 37.854 C 79.66 40.466 76.407 41.144 72.921 39.891 C 70.814 39.134 69.197 37.61 67.958 35.575 C 65.224 31.078 65.628 24.039 68.866 20.117 C 72.344 15.905 77.026 15.397 82.66 18.729 C 82.64 17.13 83.573 17.047 84.657 17.091 C 86.037 17.149 87.42 17.13 88.801 17.098 C 89.715 17.076 90.091 17.516 90.073 18.517 C 90.04 20.092 90.063 21.668 90.179 23.352 C 92.586 19.26 95.782 16.626 100.274 16.478 C 104.745 16.333 108.317 18.245 110.691 22.605 C 116.672 13.226 127.673 15.651 130.971 23.016 C 130.943 17.353 130.804 12.016 131.003 6.682 C 131.024 6.106 130.981 5.527 131.006 4.951 C 131.129 1.995 131.133 1.994 133.754 1.985 C 134.659 1.979 135.565 1.986 136.47 1.984 C 137.289 1.982 138.1 1.912 138.434 3.068 C 138.593 3.618 139.144 3.51 139.561 3.517 C 140.609 3.535 141.67 3.639 142.702 3.497 C 144.206 3.292 145.068 4.024 145.811 5.382 C 147.241 7.994 148.786 10.526 150.3 13.08 C 150.577 13.553 150.773 14.129 151.312 14.371 C 151.924 14.157 152.156 13.543 152.46 13.029 C 154.077 10.298 155.7 7.569 157.272 4.806 C 157.778 3.918 158.366 3.494 159.354 3.497 C 169.693 3.526 180.033 3.511 190.373 3.512 C 190.796 3.512 191.234 3.461 191.933 3.956 C 186.72 13.283 181.5 22.621 176.281 31.959 C 176.9 32.465 177.439 32.281 177.941 32.283 C 181.753 32.298 185.565 32.33 189.376 32.266 C 190.633 32.244 191.084 32.741 191.011 34.109 C 190.931 35.631 190.971 37.162 190.993 38.689 C 191.005 39.489 190.667 39.852 189.977 39.876 C 189.5 39.893 189.024 39.906 188.547 39.906 C 180.59 39.907 172.632 39.908 164.676 39.9 C 164.117 39.899 163.527 40.042 162.814 39.428 C 167.992 30.134 173.18 20.821 178.448 11.363 C 176.976 11.012 175.742 11.164 174.52 11.15 C 172.234 11.126 169.946 11.141 167.659 11.14 C 165.138 11.136 165.138 11.136 164.746 8.506 C 164.232 8.39 164.137 8.895 163.945 9.209 C 161.242 13.67 158.56 18.146 155.842 22.598 C 155.39 23.341 155.243 24.102 155.245 24.973 C 155.262 29.343 155.209 33.713 155.276 38.083 C 155.299 39.488 154.827 39.961 153.623 39.918 C 152.052 39.859 150.478 39.873 148.907 39.913 C 147.807 39.939 147.394 39.425 147.403 38.207 C 147.443 33.785 147.42 29.363 147.413 24.938 C 147.411 24.314 147.499 23.662 147.159 23.094 C 144.35 18.408 141.538 13.722 138.646 8.904 C 138.194 9.576 138.332 10.158 138.331 10.689 C 138.321 19.693 138.326 28.698 138.321 37.701 C 138.32 39.822 138.245 39.893 136.289 39.905 C 135.099 39.911 133.903 39.85 132.716 39.92 C 131.469 39.994 130.809 39.601 131.005 38.051 C 131.096 37.342 130.955 36.597 130.913 35.756 C 126.459 40.721 121.374 41.679 115.579 39.19 M 75.265 32.339 C 77.172 33.81 79.27 33.954 80.99 32.73 C 82.458 31.683 83.268 29.579 82.934 27.666 C 82.529 25.33 81.057 23.778 78.895 23.41 C 77.216 23.122 75.292 24.185 74.44 25.867 C 73.468 27.784 73.742 30.358 75.265 32.339 M 125.859 29.787 C 122.939 29.787 120.02 29.787 117.076 29.787 C 117.346 32.121 118.153 33.323 119.883 33.728 C 121.741 34.162 123.633 34.164 125.123 32.578 C 125.963 31.68 126.686 31.68 127.639 32.298 C 128.636 32.948 129.719 33.436 130.893 34.069 C 130.949 32.98 130.965 32.146 131.042 31.318 C 131.154 30.078 130.724 29.617 129.569 29.742 C 128.436 29.866 127.285 29.78 125.859 29.787 M 102.31 33.873 C 103.478 33.854 104.426 33.262 105.207 32.38 C 105.814 31.694 106.372 31.664 107.107 32.099 C 108.121 32.698 109.183 33.2 110.441 33.86 C 110.132 32.707 109.818 31.921 109.727 31.105 C 109.603 29.989 109.042 29.768 108.164 29.775 C 104.885 29.802 101.604 29.77 98.324 29.799 C 96.913 29.81 96.619 30.374 97.344 31.732 C 98.411 33.73 100.166 34.027 102.31 33.873 M 100.958 21.929 C 98.552 22.048 97.57 22.848 97.302 25.062 C 99.34 25.062 101.364 25.1 103.386 25.045 C 104.336 25.02 104.321 24.323 103.945 23.614 C 103.337 22.469 102.351 22.024 100.958 21.929 M 119.079 25.089 C 120.819 25.089 122.556 25.089 124.32 25.089 C 124.077 22.903 123.015 21.972 121.027 21.927 C 118.91 21.879 117.727 22.836 117.466 24.821 C 117.868 25.204 118.363 25.041 119.079 25.089 Z" fill="white"/>
  <path opacity="1.000000" stroke="none" d="M 34.172 3.518 C 35.326 3.414 35.686 3.888 35.779 5.05 C 36.398 12.741 37.12 20.424 37.598 28.137 C 37.598 25.11 37.654 22.08 37.575 19.056 C 37.534 17.526 38.036 16.99 39.398 17.09 C 40.821 17.194 42.255 17.127 43.684 17.103 C 44.519 17.089 44.891 17.473 44.89 18.419 C 44.877 25.157 44.877 31.898 44.895 38.636 C 44.897 39.542 44.477 39.87 43.755 39.872 C 39.803 39.883 35.849 39.886 31.894 39.883 C 31.027 39.882 30.8 39.276 30.744 38.433 C 30.358 32.611 29.954 26.792 29.548 20.972 C 29.512 20.452 29.426 19.938 29.14 19.343 C 28.964 19.829 28.77 20.308 28.614 20.803 C 26.795 26.565 24.963 32.32 23.187 38.1 C 22.845 39.213 22.346 39.715 21.242 39.684 C 17.411 39.578 18.265 40.136 17.077 36.485 C 15.402 31.335 13.806 26.153 12.171 20.988 C 12.021 20.515 11.836 20.055 11.428 19.636 C 11.147 23.176 10.855 26.713 10.586 30.254 C 10.377 33.031 10.175 35.808 10.018 38.588 C 9.968 39.442 9.637 39.859 8.891 39.867 C 7.033 39.882 5.175 39.89 3.316 39.88 C 2.488 39.875 2.189 39.475 2.274 38.479 C 3.209 27.386 4.109 16.288 4.984 5.189 C 5.076 4.034 5.414 3.47 6.544 3.512 C 8.305 3.583 10.072 3.594 11.832 3.503 C 12.946 3.444 13.426 4 13.792 5.079 C 15.711 10.687 17.68 16.277 19.643 21.87 C 19.827 22.39 19.894 22.996 20.493 23.486 C 20.949 22.219 21.395 21.018 21.817 19.805 C 23.531 14.897 25.272 9.999 26.919 5.063 C 27.324 3.851 27.919 3.447 29.035 3.502 C 30.698 3.583 32.37 3.52 34.172 3.518 Z" fill="white"/>
  <path opacity="1.000000" stroke="none" d="M 69.725 39.191 C 69.574 40.094 68.945 39.877 68.486 39.886 C 66.392 39.925 64.295 39.872 62.201 39.919 C 61.194 39.939 60.497 39.409 59.847 38.667 C 57.736 36.252 55.619 33.846 53.501 31.437 C 53.384 31.494 53.268 31.552 53.151 31.61 C 53.151 33.731 53.088 35.856 53.172 37.974 C 53.229 39.421 52.73 39.982 51.442 39.916 C 50.112 39.847 48.775 39.862 47.443 39.891 C 46.244 39.92 45.821 39.387 45.827 38.008 C 45.877 29.17 45.851 20.333 45.849 11.494 C 45.848 8.865 45.897 6.235 45.83 3.607 C 45.797 2.335 46.266 1.933 47.34 1.976 C 48.672 2.03 50.01 2.054 51.339 1.968 C 52.686 1.88 53.188 2.438 53.173 3.962 C 53.112 9.906 53.137 15.849 53.15 21.794 C 53.151 22.614 53.007 23.454 53.414 24.648 C 55.309 22.467 57.108 20.469 58.826 18.39 C 59.633 17.411 60.52 17.031 61.712 17.073 C 64.068 17.159 66.429 17.099 68.799 17.099 C 68.842 18.093 68.262 18.404 67.888 18.823 C 65.549 21.447 63.213 24.074 60.818 26.633 C 59.919 27.592 59.791 28.228 60.79 29.285 C 63.812 32.486 66.725 35.815 69.725 39.191 Z" fill="white"/>
  <path opacity="1.000000" stroke="none" d="M 42.074 12.736 C 39.795 12.877 38.178 11.838 37.368 9.813 C 36.664 8.061 37.002 6.221 38.343 4.763 C 39.6 3.397 41.079 2.886 42.779 3.606 C 44.554 4.359 45.548 5.876 45.641 7.92 C 45.729 9.793 44.83 11.223 43.375 12.179 C 43.012 12.415 42.587 12.531 42.074 12.736 Z" fill="white"/>
</svg>