<svg width="204" height="204" viewBox="0 0 204 204" fill="none" xmlns="http://www.w3.org/2000/svg">
<path d="M187.639 69.9021C193.092 67.8586 199.226 70.6143 200.696 76.2484C206.238 97.4863 204.802 120.051 196.436 140.546C186.737 164.31 168.435 183.543 145.182 194.409C121.928 205.275 95.4333 206.975 70.9821 199.169C46.5309 191.364 25.9211 174.628 13.2642 152.299C0.607328 129.97 -3.16618 103.69 2.6965 78.7016C8.55918 53.7134 23.627 31.854 44.8941 17.4842C66.1612 3.11439 92.0641 -2.7094 117.435 1.17464C139.317 4.52444 159.415 14.8827 174.791 30.5466C178.869 34.702 178.083 41.3805 173.529 45.009C168.975 48.6374 162.385 47.8272 158.195 43.7832C146.212 32.2155 130.877 24.5642 114.244 22.0179C94.1181 18.9368 73.5701 23.5566 56.6994 34.9558C39.8288 46.355 27.8758 63.6955 23.2251 83.518C18.5744 103.34 21.5679 124.188 31.6082 141.901C41.6486 159.614 57.9979 172.89 77.3943 179.082C96.7908 185.274 117.809 183.925 136.255 175.305C154.701 166.686 169.219 151.429 176.914 132.578C183.273 116.999 184.584 99.9117 180.815 83.688C179.497 78.0164 182.187 71.9457 187.639 69.9021Z" fill="url(#paint0_linear_16_339)"/>
<path d="M 42.324 95.646 C 42.324 103.596 47.884 109.944 55.98 109.944 C 57.029 109.944 57.771 109.821 58.204 109.574 L 48.873 122.762 L 61.973 122.762 L 71.489 107.665 C 73.897 103.781 75.443 99.344 75.443 95.338 C 75.443 86.342 68.461 79.624 58.884 79.624 C 49.491 79.624 42.324 86.403 42.324 95.646 Z M 53.2 95.215 C 53.2 92.072 55.732 89.669 58.946 89.669 C 62.157 89.669 64.628 92.134 64.628 95.276 C 64.628 98.42 62.157 100.822 58.946 100.822 C 55.732 100.822 53.2 98.357 53.2 95.215 Z M 90.926 105.507 C 91.852 104.028 93.645 102.857 95.932 102.857 C 99.083 102.857 101.368 105.076 101.368 108.095 C 101.368 111.115 99.083 113.517 95.932 113.517 C 92.656 113.517 90.864 111.361 90.68 109.452 L 79.805 109.452 C 79.989 118.015 86.293 123.624 96.117 123.624 C 105.323 123.624 112.367 116.783 112.367 107.541 C 112.367 99.899 106.868 93.551 98.773 93.551 C 96.117 93.551 93.768 94.228 91.729 95.523 L 92.532 90.1 L 109.401 90.1 L 109.401 80.486 L 84.006 80.486 L 80.853 103.411 L 90.926 105.507 Z M 137.199 90.285 C 137.199 84.431 132.441 79.87 126.323 79.87 C 120.208 79.87 115.45 84.431 115.45 90.285 C 115.45 96.139 120.208 100.7 126.323 100.7 C 132.441 100.7 137.199 96.139 137.199 90.285 Z M 129.908 90.285 C 129.908 92.442 128.364 93.921 126.323 93.921 C 124.285 93.921 122.741 92.442 122.741 90.285 C 122.741 88.129 124.285 86.65 126.323 86.65 C 128.364 86.65 129.908 88.129 129.908 90.285 Z M 160.369 80.426 L 150.917 80.426 L 119.404 122.762 L 128.858 122.762 L 160.369 80.426 Z M 142.575 112.901 C 142.575 118.756 147.332 123.317 153.449 123.317 C 159.567 123.317 164.324 118.756 164.324 112.901 C 164.324 107.048 159.567 102.486 153.449 102.486 C 147.332 102.486 142.575 107.048 142.575 112.901 Z M 149.866 112.901 C 149.866 110.745 151.411 109.266 153.449 109.266 C 155.488 109.266 157.034 110.745 157.034 112.901 C 157.034 115.059 155.488 116.537 153.449 116.537 C 151.411 116.537 149.866 115.059 149.866 112.901 Z" fill="black"></path>
<defs>
<linearGradient id="paint0_linear_16_339" x1="-12.4348" y1="91.2145" x2="228.124" y2="92.098" gradientUnits="userSpaceOnUse">
<stop stop-color="#89216b"/>
<stop offset="1" stop-color="#da4453"/>
</linearGradient>
</defs>
</svg>
