<svg width="204" height="204" viewBox="0 0 204 204" fill="none" xmlns="http://www.w3.org/2000/svg">
<path d="M187.639 69.9021C193.092 67.8586 199.226 70.6143 200.696 76.2484C206.238 97.4863 204.802 120.051 196.436 140.546C186.737 164.31 168.435 183.543 145.182 194.409C121.928 205.275 95.4333 206.975 70.9821 199.169C46.5309 191.364 25.9211 174.628 13.2642 152.299C0.607328 129.97 -3.16618 103.69 2.6965 78.7016C8.55918 53.7134 23.627 31.854 44.8941 17.4842C66.1612 3.11439 92.0641 -2.7094 117.435 1.17464C139.317 4.52444 159.415 14.8827 174.791 30.5466C178.869 34.702 178.083 41.3805 173.529 45.009C168.975 48.6374 162.385 47.8272 158.195 43.7832C146.212 32.2155 130.877 24.5642 114.244 22.0179C94.1181 18.9368 73.5701 23.5566 56.6994 34.9558C39.8288 46.355 27.8758 63.6955 23.2251 83.518C18.5744 103.34 21.5679 124.188 31.6082 141.901C41.6486 159.614 57.9979 172.89 77.3943 179.082C96.7908 185.274 117.809 183.925 136.255 175.305C154.701 166.686 169.219 151.429 176.914 132.578C183.273 116.999 184.584 99.9117 180.815 83.688C179.497 78.0164 182.187 71.9457 187.639 69.9021Z" fill="url(#paint0_linear_16_344)"/>
<path d="M 56.433 79.801 C 48.847 79.801 42.446 84.669 42.446 92.064 C 42.446 95.577 44.283 98.35 47.069 100.075 C 43.928 101.739 40.668 105.252 40.668 110.182 C 40.668 118.747 48.195 123.801 56.433 123.801 C 64.671 123.801 72.198 118.747 72.198 110.182 C 72.198 105.252 68.939 101.739 65.797 100.075 C 68.583 98.35 70.42 95.577 70.42 92.064 C 70.42 84.669 64.019 79.801 56.433 79.801 Z M 61.53 109.565 C 61.53 112.462 59.456 114.557 56.433 114.557 C 53.411 114.557 51.336 112.462 51.336 109.565 C 51.336 106.792 53.411 104.635 56.433 104.635 C 59.456 104.635 61.53 106.792 61.53 109.565 Z M 56.433 88.798 C 58.804 88.798 60.641 90.462 60.641 92.865 C 60.641 95.268 58.863 96.932 56.433 96.932 C 54.003 96.932 52.225 95.268 52.225 92.865 C 52.225 90.462 54.063 88.798 56.433 88.798 Z M 112.192 101.801 C 112.192 90.154 105.791 79.801 94.174 79.801 C 82.499 79.801 76.098 90.154 76.098 101.801 C 76.098 113.448 82.499 123.801 94.174 123.801 C 105.791 123.801 112.192 113.448 112.192 101.801 Z M 101.168 101.801 C 101.168 107.532 99.035 113.14 94.174 113.14 C 89.255 113.14 87.122 107.532 87.122 101.801 C 87.122 96.07 89.255 90.462 94.174 90.462 C 99.035 90.462 101.168 96.07 101.168 101.801 Z M 136.65 90.462 C 136.65 84.607 132.086 80.047 126.219 80.047 C 120.351 80.047 115.788 84.607 115.788 90.462 C 115.788 96.316 120.351 100.876 126.219 100.876 C 132.086 100.876 136.65 96.316 136.65 90.462 Z M 129.656 90.462 C 129.656 92.619 128.175 94.098 126.219 94.098 C 124.263 94.098 122.781 92.619 122.781 90.462 C 122.781 88.305 124.263 86.826 126.219 86.826 C 128.175 86.826 129.656 88.305 129.656 90.462 Z M 158.875 80.602 L 149.807 80.602 L 119.581 122.938 L 128.649 122.938 L 158.875 80.602 Z M 141.806 113.078 C 141.806 118.932 146.37 123.493 152.237 123.493 C 158.105 123.493 162.668 118.932 162.668 113.078 C 162.668 107.224 158.105 102.663 152.237 102.663 C 146.37 102.663 141.806 107.224 141.806 113.078 Z M 148.8 113.078 C 148.8 110.921 150.281 109.442 152.237 109.442 C 154.193 109.442 155.675 110.921 155.675 113.078 C 155.675 115.235 154.193 116.714 152.237 116.714 C 150.281 116.714 148.8 115.235 148.8 113.078 Z" fill="black"></path>
<defs>
<linearGradient id="paint0_linear_16_344" x1="-12.4348" y1="91.2145" x2="228.124" y2="92.098" gradientUnits="userSpaceOnUse">
<stop stop-color="#89216b"/>
<stop offset="1" stop-color="#da4453"/>
</linearGradient>
</defs>
</svg>
