<?xml version="1.0" encoding="utf-8"?>
<svg width="204" height="204" viewBox="0 0 204 204" fill="none" xmlns="http://www.w3.org/2000/svg" xmlnsBx="https://boxy-svg.com">
  <path d="M187.639 69.9021C193.092 67.8586 199.226 70.6143 200.696 76.2484C206.238 97.4863 204.802 120.051 196.436 140.546C186.737 164.31 168.435 183.543 145.182 194.409C121.928 205.275 95.4333 206.975 70.9821 199.169C46.5309 191.364 25.9211 174.628 13.2642 152.299C0.607328 129.97 -3.16618 103.69 2.6965 78.7016C8.55918 53.7134 23.627 31.854 44.8941 17.4842C66.1612 3.11439 92.0641 -2.7094 117.435 1.17464C139.317 4.52444 159.415 14.8827 174.791 30.5466C178.869 34.702 178.083 41.3805 173.529 45.009C168.975 48.6374 162.385 47.8272 158.195 43.7832C146.212 32.2155 130.877 24.5642 114.244 22.0179C94.1181 18.9368 73.5701 23.5566 56.6994 34.9558C39.8288 46.355 27.8758 63.6955 23.2251 83.518C18.5744 103.34 21.5679 124.188 31.6082 141.901C41.6486 159.614 57.9979 172.89 77.3943 179.082C96.7908 185.274 117.809 183.925 136.255 175.305C154.701 166.686 169.219 151.429 176.914 132.578C183.273 116.999 184.584 99.9117 180.815 83.688C179.497 78.0164 182.187 71.9457 187.639 69.9021Z" style="fill: url('#gradient-0');"/>
  <defs>
    <bx:grid x="0" y="0" width="102.034" height="102.034"/>
    <linearGradient gradientUnits="userSpaceOnUse" x1="102" y1="0" x2="102" y2="204" id="gradient-0">
      <stop offset="0" stop-color= "rgb(218, 68, 83);"/>
      <stop offset="1" stop-color= "rgb(137, 33, 107);"/>
    </linearGradient>
  </defs>
  <path d="M 34.001 94.664 C 34.001 104.42 40.155 112.211 49.112 112.211 C 50.274 112.211 51.095 112.06 51.572 111.756 L 41.248 127.942 L 55.743 127.942 L 66.273 109.413 C 68.939 104.647 70.648 99.202 70.648 94.286 C 70.648 83.244 62.922 75 52.326 75 C 41.932 75 34.001 83.319 34.001 94.664 Z M 46.035 94.135 C 46.035 90.277 48.838 87.328 52.393 87.328 C 55.949 87.328 58.683 90.354 58.683 94.21 C 58.683 98.068 55.949 101.016 52.393 101.016 C 48.838 101.016 46.035 97.991 46.035 94.135 Z M 87.781 106.765 C 88.807 104.95 90.791 103.513 93.32 103.513 C 96.807 103.513 99.337 106.236 99.337 109.941 C 99.337 113.647 96.807 116.597 93.32 116.597 C 89.697 116.597 87.714 113.95 87.509 111.606 L 75.475 111.606 C 75.68 122.117 82.654 129 93.526 129 C 103.712 129 111.507 120.605 111.507 109.261 C 111.507 99.883 105.422 92.092 96.466 92.092 C 93.526 92.092 90.927 92.924 88.671 94.513 L 89.56 87.857 L 108.226 87.857 L 108.226 76.058 L 80.125 76.058 L 76.637 104.193 L 87.781 106.765 Z M 138.986 88.085 C 138.986 80.899 133.721 75.302 126.952 75.302 C 120.183 75.302 114.918 80.899 114.918 88.085 C 114.918 95.269 120.183 100.866 126.952 100.866 C 133.721 100.866 138.986 95.269 138.986 88.085 Z M 130.918 88.085 C 130.918 90.732 129.208 92.547 126.952 92.547 C 124.696 92.547 122.986 90.732 122.986 88.085 C 122.986 85.437 124.696 83.622 126.952 83.622 C 129.208 83.622 130.918 85.437 130.918 88.085 Z M 164.626 75.984 L 154.165 75.984 L 119.295 127.942 L 129.755 127.942 L 164.626 75.984 Z M 144.935 115.841 C 144.935 123.026 150.199 128.623 156.968 128.623 C 163.737 128.623 169.001 123.026 169.001 115.841 C 169.001 108.656 163.737 103.058 156.968 103.058 C 150.199 103.058 144.935 108.656 144.935 115.841 Z M 153.001 115.841 C 153.001 113.193 154.711 111.378 156.968 111.378 C 159.225 111.378 160.933 113.193 160.933 115.841 C 160.933 118.489 159.225 120.303 156.968 120.303 C 154.711 120.303 153.001 118.489 153.001 115.841 Z" style="fill: rgb(0, 0, 0);"/>
</svg>